<?xml version="1.0" standalone="no"?><!DOCTYPE svg PUBLIC "-//W3C//DTD SVG 1.1//EN" "http://www.w3.org/Graphics/SVG/1.1/DTD/svg11.dtd"><svg t="1788875982723" class="icon" viewBox="0 0 1024 1024" version="1.1" xmlns="http://www.w3.org/2000/svg" p-id="11273" xmlns:xlink="http://www.w3.org/1999/xlink" width="200" height="200"><path d="M776.106667 611.669333l76.8 15.189334C817.194667 804.693333 658.944 938.666667 469.12 938.666667 279.253333 938.666667 121.002667 804.693333 85.333333 626.858667l76.757334-15.189334c28.544 142.208 155.136 249.429333 307.029333 249.429334 151.893333 0 278.485333-107.221333 307.029333-249.429334zM469.162667 124.117333c38.784 0 75.050667 11.221333 105.514666 30.592l-42.24 65.28a117.418667 117.418667 0 0 0-63.274666-18.304c-64.853333 0-117.418667 52.096-117.418667 116.394667v232.704c0 64.256 52.565333 116.352 117.418667 116.352 64.853333 0 117.376-52.053333 117.376-116.352V356.864h78.250666v193.92c0 107.093333-87.594667 193.92-195.626666 193.92-108.074667 0-195.669333-86.826667-195.669334-193.92V318.08c0-107.093333 87.594667-193.962667 195.669334-193.962667z m331.434666-26.410666l9.898667 23.722666a170.026667 170.026667 0 0 0 88.106667 90.24l28.032 12.373334a20.48 20.48 0 0 1 0 37.376l-29.696 13.098666a169.941333 169.941333 0 0 0-86.826667 87.296l-9.642667 21.930667a19.882667 19.882667 0 0 1-36.565333 0l-9.642667-21.930667a169.941333 169.941333 0 0 0-86.826666-87.296l-29.696-13.098666a20.48 20.48 0 0 1 0-37.376l28.032-12.373334a170.026667 170.026667 0 0 0 88.106666-90.24l9.898667-23.722666a19.882667 19.882667 0 0 1 36.821333 0z" p-id="11274"></path></svg>